<svg width="551" height="188" viewBox="0 0 551 188" fill="none" xmlns="http://www.w3.org/2000/svg">
<path d="M23.7017 47.979V50.421H21.1117C17.9297 50.421 15.8577 52.197 15.8577 55.527V94.525C15.8577 97.633 17.7077 99.631 21.1117 99.631H23.1097C27.6237 99.631 31.9897 98.077 34.5797 96.523C39.4637 93.563 41.6097 90.011 43.1637 87.421L45.0877 88.383L39.8337 101.999H2.1677V99.631H4.6837C7.7177 99.631 10.0117 98.003 10.0117 94.525V55.527C10.0117 52.197 7.9397 50.421 4.6837 50.421H2.1677V47.979H23.7017ZM72.163 47.979V50.421H68.611C65.577 50.421 63.357 52.049 63.357 55.527V94.525C63.357 97.855 65.429 99.631 68.611 99.631H72.163V101.999H48.705V99.631H52.183C55.217 99.631 57.511 98.003 57.511 94.525V55.527C57.511 52.197 55.439 50.421 52.183 50.421H48.705V47.979H72.163ZM119.976 101.999H117.83L86.8237 54.417V93.193C86.8237 97.041 89.1917 99.631 93.2617 99.631H95.2597V101.999H76.0197V99.631H78.3877C82.0137 99.631 84.4557 97.485 84.4557 93.193V56.193C84.4557 52.567 81.7917 50.421 78.3877 50.421H76.0197V47.979H89.7097L117.534 91.121V56.267C117.534 52.715 115.018 50.421 111.762 50.421H109.098V47.979H128.412V50.421H125.6C122.122 50.421 119.976 52.419 119.976 56.267V101.999ZM155.11 75.211H146.674V94.525C146.674 97.707 148.524 99.631 151.928 99.631H157.626C170.058 99.631 173.98 92.823 177.162 87.421L179.308 88.383L174.128 101.999H132.762V99.631H135.5C138.534 99.631 140.754 98.003 140.754 94.525V55.527C140.754 52.197 138.682 50.421 135.5 50.421H132.762V47.979H173.166L177.976 59.967L175.978 61.225C171.908 54.713 167.172 50.421 160.142 50.421H151.928C148.82 50.421 146.674 52.123 146.674 55.527V72.843H155.11C160.734 72.843 163.472 70.475 163.472 65.517V63.593H165.84V84.757H163.472V82.537C163.472 77.209 159.624 75.211 155.11 75.211ZM195.482 44.501H207.322L208.802 42.799C209.172 42.355 209.542 42.059 209.912 42.059C210.208 42.059 210.726 42.355 210.948 42.503L214.5 45.611C214.722 45.833 215.018 46.203 215.018 46.647C215.018 47.091 214.796 47.387 214.5 47.609C214.278 47.831 213.39 48.571 212.872 48.941C212.798 50.495 212.724 53.899 212.724 55.453C212.724 56.933 213.094 65.887 213.094 67.145C213.094 69.439 211.466 70.549 209.32 70.549C208.358 70.549 207.692 69.957 207.692 68.921C207.692 68.477 207.766 67.515 207.766 67.219H194.446C194.52 71.289 194.446 89.345 194.446 93.045C194.446 94.821 194.668 102.739 194.668 104.293C194.668 106.883 192.448 107.697 190.82 107.697C189.414 107.697 188.822 107.105 188.822 105.551C188.822 102.665 189.266 98.077 189.34 95.117C189.562 88.087 189.562 70.327 189.562 61.965C189.562 56.045 189.488 47.387 189.118 45.019C188.896 43.613 188.674 42.207 188.452 41.319L195.482 44.501ZM207.766 46.277H194.52L194.446 54.639H207.766V46.277ZM207.766 56.415H194.446V65.443H207.766V56.415ZM228.116 44.501H240.548L242.398 42.651C242.842 42.207 243.138 41.911 243.582 41.911C243.952 41.911 244.396 42.207 244.692 42.503L248.244 45.537C248.466 45.759 248.762 46.129 248.762 46.573C248.762 46.943 248.54 47.239 248.244 47.535C247.948 47.831 246.986 48.645 246.32 49.163C246.32 51.309 246.246 70.549 246.246 78.023C246.246 80.983 246.468 93.933 246.468 96.523C246.468 103.331 246.468 105.699 238.18 107.771C237.44 105.033 236.996 103.479 231.372 100.371L231.446 99.853C232.926 100.001 234.998 100.149 237.144 100.149C240.4 100.149 241.51 100.149 241.51 97.929C241.51 95.487 241.436 67.885 241.436 67.219H227.45C227.672 69.587 225.378 70.253 223.898 70.253C222.492 70.253 222.196 69.291 222.196 68.255C222.196 67.367 222.418 63.445 222.418 62.631C222.492 59.745 222.566 56.045 222.566 51.753C222.566 48.571 222.566 44.353 221.974 41.541L228.116 44.501ZM241.436 46.277H227.45V54.639H241.436V46.277ZM241.436 56.415H227.45V65.443H241.436V56.415ZM210.208 76.173H223.38L224.86 74.545C225.526 73.879 225.748 73.583 226.118 73.583C226.414 73.583 226.784 73.879 227.228 74.175L230.336 76.395C230.558 76.543 231.002 77.061 231.002 77.357C231.002 77.875 230.558 78.319 229.004 79.503C228.93 81.057 228.856 84.239 228.856 86.385C228.856 87.569 229.078 92.971 229.078 94.007C229.078 95.857 227.524 97.337 225.748 97.337C224.49 97.337 223.824 96.745 223.824 95.413C223.824 94.895 223.898 93.711 223.972 93.119H209.32C209.32 93.859 209.394 95.487 209.32 95.857C209.172 97.337 207.618 98.447 205.916 98.447C204.806 98.447 204.214 97.781 204.214 96.301C204.214 94.229 204.584 85.053 204.584 83.203C204.584 77.579 204.436 75.729 203.918 73.287L210.208 76.173ZM223.972 77.949H209.32V91.343H223.972V77.949ZM321.504 80.391C321.504 82.981 320.098 85.201 318.914 85.201C318.026 85.201 317.73 84.905 314.844 82.167C312.846 80.317 308.85 79.577 307 79.207V78.763C308.036 78.615 313.068 78.171 313.586 78.023C314.548 77.801 315.214 77.209 315.214 76.099C315.214 73.805 311.366 62.927 302.19 58.339C302.708 58.265 302.856 58.191 303.448 58.191C311.736 58.191 321.504 71.807 321.504 80.391ZM291.164 69.365C290.128 71.585 282.432 88.975 282.284 89.789C282.21 90.159 282.136 90.381 282.136 90.751C282.136 91.343 282.728 94.155 282.728 94.747C282.728 96.671 281.544 97.263 280.434 97.263C277.844 97.263 267.336 93.563 266.078 72.473C265.634 65.147 265.338 60.485 264.894 58.857C264.228 56.193 263.044 54.195 262.304 52.789C266.078 53.011 271.628 56.267 271.628 61.077C271.628 61.595 271.628 62.039 271.332 63.519C270.888 66.257 270.37 69.883 270.37 73.805C270.37 82.907 274.81 88.309 276.808 88.309C277.622 88.309 278.362 87.347 278.584 86.977C281.914 82.019 287.39 74.175 290.572 69.143L291.164 69.365ZM386.698 82.315C386.698 83.055 385.588 83.795 384.182 84.683C384.034 87.717 384.034 91.565 384.108 94.747C384.108 96.079 384.478 102.073 384.478 103.331C384.478 105.329 381.666 106.217 380.408 106.217C379.446 106.217 378.706 105.847 378.706 104.737C378.706 104.441 378.78 103.849 378.854 102.887H352.288C352.362 104.219 352.51 106.883 347.996 106.883C347.774 106.883 346.294 106.883 346.294 105.255C346.294 104.589 346.664 101.481 346.664 100.889C347.034 94.155 346.96 87.273 346.96 86.015C346.96 81.649 346.664 79.207 346.516 77.653L353.102 81.131H378.336L380.26 78.763C380.63 78.245 381.074 78.023 381.37 78.023C381.74 78.023 382.11 78.245 382.628 78.689L385.736 81.205C386.032 81.427 386.698 81.945 386.698 82.315ZM378.854 101.111V82.907H352.214V101.111H378.854ZM400.98 67.219C397.132 68.403 394.912 71.437 394.024 72.917C381.74 67.293 370.788 56.119 366.274 45.759C351.992 66.627 338.302 74.323 330.976 76.913L330.68 76.469C339.116 70.845 349.106 60.559 355.618 51.605C357.912 48.497 361.242 43.909 361.834 39.839L368.198 42.651C368.79 42.947 369.234 43.317 369.234 43.761C369.234 44.353 369.086 44.871 367.606 45.537C372.712 53.603 385.588 64.037 400.98 66.553V67.219ZM382.11 70.623C382.11 71.363 381.444 71.437 380.926 71.437H358.726C357.394 71.437 353.62 71.437 350.068 72.103L348.588 69.143C353.176 69.513 357.764 69.661 359.984 69.661H372.49L374.932 66.627C375.302 66.109 375.672 65.739 376.116 65.739C376.486 65.739 376.93 66.109 377.448 66.479L381.37 69.513C381.74 69.809 382.11 70.179 382.11 70.623ZM469.8 76.025C469.8 92.157 451.226 98.373 439.238 98.077V97.559C447.452 96.005 464.25 89.345 464.25 75.507C464.25 66.923 456.406 64.111 452.632 64.111C446.416 64.111 437.906 67.885 429.47 75.359C429.47 79.725 429.692 82.759 429.914 85.127C430.136 88.161 430.58 93.193 430.58 94.303C430.58 96.893 429.84 102.813 427.25 102.813C425.696 102.813 425.474 101.259 425.252 99.483C425.104 98.077 424.808 95.561 422.662 90.529L422.958 90.381C423.402 90.751 425.844 92.379 426.214 92.379C426.806 92.379 426.806 91.639 426.806 91.269C426.806 91.047 426.584 87.643 426.584 87.125C426.584 85.275 426.51 83.425 426.51 81.575V78.319C423.106 82.093 419.85 86.977 417.038 91.861C415.114 95.191 414.67 95.191 413.93 95.191C412.376 95.191 411.932 93.563 411.932 92.305C411.932 89.937 412.672 89.197 415.04 86.829C418.148 83.647 423.846 75.285 426.732 68.255C426.88 66.849 426.954 65.369 427.102 63.741C425.992 63.667 421.996 66.109 421.034 66.775C418.444 68.625 418.148 68.847 417.186 68.847C414.226 68.847 412.08 64.703 412.08 61.595C412.08 60.929 412.228 60.559 412.376 60.115C413.93 62.631 415.854 63.223 417.556 63.223C420.516 63.223 426.88 60.115 427.398 59.893C427.472 58.339 428.064 51.457 428.064 50.051C428.064 46.351 427.25 45.833 423.55 43.613C424.216 43.317 425.104 42.873 426.732 42.873C430.284 42.873 434.28 45.759 434.28 47.757C434.28 48.127 433.318 50.643 433.096 51.087C431.616 54.713 431.468 55.379 430.95 57.895C431.172 57.747 431.394 57.673 431.616 57.673C432.43 57.673 436.796 58.709 436.796 60.189C436.796 61.299 434.872 63.445 433.91 64.481C432.578 66.035 431.098 68.033 429.618 70.993C429.618 71.363 429.544 72.399 429.544 72.917C440.126 63.741 447.896 61.225 454.556 61.225C461.216 61.225 469.8 65.739 469.8 76.025ZM547.352 63.519C547.352 65.739 545.28 65.739 543.504 65.739C542.764 65.739 539.582 65.591 538.916 65.591C534.106 65.591 529.814 66.035 527.742 66.331C527.15 76.321 526.262 87.643 520.638 87.643C519.528 87.643 519.528 87.643 517.678 85.275C516.494 83.795 515.236 82.389 510.13 79.281L510.204 78.911C517.012 80.613 517.752 80.761 519.158 80.761C520.564 80.761 521.6 80.539 522.34 77.801C523.006 75.433 523.302 69.587 523.45 66.923C516.272 68.033 510.204 69.439 504.432 70.993C504.358 74.175 504.284 76.913 504.284 78.097C504.284 93.637 506.208 96.745 518.492 96.745C523.45 96.745 526.114 96.301 531.516 95.487C532.034 95.413 532.626 95.339 533.292 95.339C536.548 95.339 537.658 97.559 537.658 98.743C537.658 99.335 537.51 100.001 536.622 100.445C535.512 100.963 534.698 101.407 525.818 101.407C501.472 101.407 499.918 95.191 499.918 72.325C496.366 73.583 492.074 74.989 489.41 76.691C488.448 77.357 487.708 77.801 486.672 77.801C484.674 77.801 480.53 74.471 480.53 70.475C480.53 70.105 480.53 69.661 480.752 68.699C482.232 70.401 484.156 71.881 486.598 71.881C488.078 71.881 488.374 71.807 499.918 68.847C499.696 57.821 499.696 57.229 494.812 55.009C495.552 54.417 496.292 53.825 498.364 53.825C501.324 53.825 505.616 55.897 505.616 58.043C505.616 58.635 505.468 59.375 505.32 59.967C504.876 62.113 504.728 63.667 504.58 67.589C514.792 65.073 521.156 64.037 523.598 63.593C523.746 60.337 523.968 51.753 522.488 48.941C521.674 47.461 518.936 46.277 516.864 45.759C517.53 45.315 519.158 44.057 522.118 44.057C525.004 44.057 529 46.425 529 48.867C529 49.089 528.63 51.309 528.556 51.753C528.26 53.455 528.038 61.299 527.89 62.853C529.296 62.631 536.696 61.299 537.214 61.151C538.99 60.707 540.1 60.337 541.58 60.337C541.728 60.337 547.352 60.337 547.352 63.519Z" fill="white"/>
<path d="M144.18 154.799L142.26 162.999H126.54V161.919C127.34 159.399 129.22 156.599 132.42 152.959C138.3 146.159 140.3 143.879 140.3 139.879C140.3 136.879 138.38 134.399 134.98 134.399C132.18 134.399 130.5 136.079 130.5 137.519C130.5 137.639 130.5 138.159 130.9 138.759C131.42 139.559 131.74 139.999 131.74 140.759C131.74 141.959 130.78 142.999 129.58 142.999C128.18 142.999 127.3 141.679 127.3 140.199C127.3 137.279 130.14 133.039 135.9 133.039C140.86 133.039 143.9 136.159 143.9 140.479C143.9 144.519 141.58 146.719 137.98 149.799C136.62 150.919 131.34 155.439 129.34 159.839H134.86C140.46 159.839 141.78 157.679 142.98 154.359L144.18 154.799ZM146.22 153.239L158.62 133.039H160.26V153.359H164.78V154.639H160.26V159.279C160.26 161.039 161.14 161.719 163.06 161.719H163.7V162.999H153.54V161.719H154.18C156.06 161.719 156.98 161.079 156.98 159.279V154.639H146.22V153.239ZM156.98 153.359V138.319L147.74 153.359H156.98ZM180.66 134.559C180.66 134.919 179.86 135.439 179.3 135.839C179.26 137.279 179.22 138.199 179.22 140.119C179.22 144.319 179.46 153.399 179.54 155.119C179.54 155.639 179.66 156.559 179.66 157.079C179.66 158.599 177.94 158.679 177.74 158.679C176.66 158.679 176.66 158.399 176.74 155.759H171.74C171.74 156.039 171.86 159.319 171.86 159.399C171.86 160.839 170.3 161.119 169.86 161.119C168.86 161.119 168.86 160.359 168.86 159.879C168.86 159.439 168.98 157.479 168.98 157.079C169.1 154.039 169.14 142.799 169.14 141.879C169.14 135.919 169.02 134.799 168.66 131.999L172.14 133.679H176.22L177.38 132.639C177.82 132.279 177.9 132.119 178.1 132.119C178.3 132.119 178.5 132.239 178.74 132.479L180.34 133.919C180.5 134.079 180.66 134.319 180.66 134.559ZM176.78 144.039V134.639H171.74V144.039H176.78ZM176.78 154.799V144.999H171.74V154.799H176.78ZM203.54 143.799C203.54 144.199 203.18 144.239 202.94 144.239H185.34C184.62 144.239 182.58 144.239 180.62 144.599L179.86 142.999C182.34 143.199 184.78 143.279 185.98 143.279H189.34V137.159H187.58C187.18 137.159 184.74 137.159 182.86 137.519L182.1 135.919C184.74 136.159 187.54 136.199 188.22 136.199H189.34C189.34 132.159 189.22 131.399 188.66 129.679L192.78 130.879C193.22 130.999 193.5 131.199 193.5 131.519C193.5 131.839 193.38 131.919 192.22 132.719C192.18 133.679 192.18 133.919 192.14 136.199H196.06L197.54 134.479C197.82 134.119 197.98 133.999 198.18 133.999C198.42 133.999 198.62 134.119 198.9 134.399L200.86 136.119C201.06 136.279 201.26 136.439 201.26 136.719C201.26 137.079 200.9 137.159 200.66 137.159H192.1V143.279H198.18L199.7 141.439C200.02 141.039 200.14 140.919 200.3 140.919C200.54 140.919 200.66 141.079 201.06 141.399L203.18 143.199C203.5 143.479 203.54 143.679 203.54 143.799ZM203.46 151.119C203.46 151.479 203.14 151.559 202.86 151.559H196.22C196.22 152.359 196.34 159.879 196.34 161.159C196.34 162.679 196.34 165.159 191.18 166.119C190.82 164.799 190.38 163.679 187.5 162.119L187.58 161.839C188.38 161.919 190.86 162.119 191.5 162.119C193.3 162.119 193.54 161.759 193.58 160.959C193.62 160.239 193.62 152.199 193.58 151.559H185.82C184.82 151.559 182.9 151.599 181.1 151.919L180.34 150.319C183.06 150.559 185.9 150.599 186.46 150.599H193.58C193.54 149.039 193.46 146.239 193.06 145.079L196.66 145.959C197.18 146.079 197.42 146.159 197.42 146.479C197.42 146.759 197.3 146.839 196.26 147.639C196.22 148.399 196.22 148.639 196.22 150.599H198.1L199.74 148.719C200.06 148.359 200.22 148.239 200.42 148.239C200.62 148.239 200.78 148.319 201.1 148.639L203.06 150.519C203.34 150.759 203.46 150.879 203.46 151.119ZM189.26 157.839C189.26 158.919 188.42 159.599 187.58 159.599C186.38 159.599 186.14 158.479 185.94 157.399C185.5 154.879 184.7 153.719 184.06 152.959L184.22 152.719C188.14 154.279 189.26 156.599 189.26 157.839ZM241.9 133.239C241.9 133.559 241.58 133.839 240.3 134.639C240.3 138.519 240.38 155.679 240.38 159.159C240.38 162.759 240.38 163.719 238.78 164.839C238.54 164.999 237.42 165.799 235.74 166.159C235.42 164.759 235.06 163.239 231.42 161.839L231.5 161.559C232.18 161.599 235.82 161.799 236.22 161.799C236.58 161.799 237.34 161.799 237.58 161.319C237.74 160.959 237.74 157.679 237.74 156.959C237.74 154.799 237.7 145.279 237.7 143.359H230.14C230.18 144.479 229.34 144.999 228.26 144.999C227.7 144.999 227.34 144.679 227.34 144.039C227.34 142.279 227.46 134.679 227.46 133.159C227.46 132.479 227.38 131.759 227.26 130.599L230.58 132.279H237.34L238.3 131.199C238.46 131.039 238.78 130.759 239.02 130.759C239.26 130.759 239.5 130.879 239.66 131.039L241.58 132.679C241.78 132.879 241.9 133.039 241.9 133.239ZM237.7 137.239V133.239H230.1V137.239H237.7ZM237.7 142.399V138.199H230.1V142.399H237.7ZM232.7 148.199C232.7 148.479 232.34 148.839 231.46 149.399C231.46 151.279 231.46 154.319 231.58 156.719C231.58 157.079 231.74 158.719 231.74 159.039C231.74 160.759 230.26 160.879 229.74 160.879C229.22 160.879 228.7 160.759 228.9 158.879H221.1C221.18 159.839 221.34 161.479 219.22 161.479C218.34 161.479 218.3 160.799 218.3 160.359C218.3 160.119 218.38 159.079 218.42 158.639C218.58 156.359 218.58 152.079 218.58 151.719C218.58 149.559 218.58 148.119 218.3 146.079L221.22 147.519H228.82L229.5 146.639C229.7 146.359 229.94 146.119 230.26 146.119C230.46 146.119 230.7 146.279 230.9 146.439L232.34 147.679C232.54 147.839 232.7 147.999 232.7 148.199ZM228.9 152.679V148.479H221.1V152.679H228.9ZM228.9 157.919V153.639H221.1V157.919H228.9ZM224.38 133.199C224.38 133.479 224.14 133.719 223.02 134.519V139.079C223.02 139.719 223.18 142.799 223.18 143.239C223.18 144.199 222.22 144.799 221.22 144.799C220.14 144.799 220.26 143.839 220.34 143.359H213.5V153.399C213.5 154.839 213.66 161.799 213.66 163.359C213.66 164.399 213.26 165.599 211.62 165.599C210.74 165.599 210.46 165.079 210.46 164.559C210.46 164.319 210.58 163.279 210.58 163.039C210.9 158.519 210.9 156.039 210.9 138.519C210.9 132.799 210.9 132.679 210.46 130.519L214.18 132.279H219.94L220.98 131.319C221.22 131.119 221.38 130.919 221.54 130.919C221.7 130.919 221.9 131.079 222.02 131.159L224.1 132.679C224.26 132.799 224.38 132.959 224.38 133.199ZM220.38 137.239V133.239H213.5V137.239H220.38ZM220.38 142.399V138.199H213.5V142.399H220.38ZM256.98 147.239C258.82 147.799 260.02 148.199 261.42 149.399C263.26 150.959 264.14 152.959 264.14 155.319C264.14 160.239 260.1 163.759 254.82 163.759C250.5 163.759 246.86 161.319 246.86 158.119C246.86 156.359 248.02 155.559 249.14 155.559C250.5 155.559 251.1 156.719 251.1 157.559C251.1 158.159 250.98 158.519 250.86 158.839C250.78 159.079 250.74 159.359 250.74 159.759C250.74 161.279 252.46 162.399 254.34 162.399C257.42 162.399 260.54 159.359 260.54 155.319C260.54 151.199 257.5 147.999 254.3 147.999C254.06 147.999 252.94 148.159 252.7 148.159C252.1 148.159 251.82 147.799 251.82 147.319C251.82 146.799 252.22 146.399 252.74 146.399C252.98 146.399 254.18 146.639 254.46 146.639C257.82 146.639 259.94 143.639 259.94 140.399C259.94 137.279 258.06 134.399 254.9 134.399C252.78 134.399 251.66 135.919 251.66 137.079C251.66 137.279 251.74 137.479 251.78 137.679C251.86 137.959 251.9 138.359 251.9 138.639C251.9 139.879 250.98 140.839 249.86 140.839C248.54 140.839 247.86 139.679 247.86 138.639C247.86 136.439 250.42 133.039 255.54 133.039C260.46 133.039 263.54 136.239 263.54 139.759C263.54 141.159 263.02 142.519 262.06 143.839C260.42 145.999 258.62 146.679 256.98 147.239ZM270.22 149.239C270.98 147.999 271.82 146.599 273.74 145.439C274.58 144.919 275.82 144.399 277.22 144.399C281.18 144.399 284.38 148.399 284.38 153.239C284.38 158.799 280.42 163.759 275.82 163.759C271.26 163.759 266.62 158.599 266.62 149.959C266.62 140.719 271.82 133.039 277.94 133.039C280.62 133.039 282.5 134.639 282.5 136.559C282.5 137.999 281.38 138.639 280.46 138.639C279.66 138.639 278.34 138.119 278.26 135.839C278.22 134.959 278.14 134.399 277.06 134.399C275.98 134.399 274.9 134.999 274.14 135.839C270.58 139.759 270.38 145.639 270.22 149.239ZM270.26 151.639C270.42 153.839 270.74 157.679 272.42 160.239C273.1 161.319 274.14 162.399 275.66 162.399C277.78 162.399 280.78 160.199 280.78 153.599C280.78 151.799 280.34 146.199 276.22 146.199C274.7 146.199 272.14 147.319 270.26 151.639ZM301.82 136.959H289.86L289.5 147.039C291.22 145.519 292.74 144.279 295.7 144.279C301.46 144.279 304.22 149.039 304.22 153.439C304.22 159.239 299.62 163.759 294.34 163.759C289.78 163.759 286.78 160.359 286.78 157.879C286.78 156.359 287.74 155.399 289.1 155.399C290.3 155.399 291.18 156.199 291.18 157.479C291.18 157.879 291.14 158.039 290.98 158.679C290.9 158.999 290.86 159.559 290.86 159.799C290.86 161.519 292.66 162.399 294.26 162.399C297.5 162.399 300.54 159.319 300.54 153.959C300.54 148.879 297.86 146.079 294.94 146.079C293.34 146.079 290.9 146.959 288.7 149.559L288.1 149.239L288.7 133.799H302.62L301.82 136.959ZM337.18 134.879C337.18 135.359 336.66 135.639 335.62 136.119C335.54 138.359 335.54 139.679 335.54 141.959C335.54 148.999 335.74 158.679 335.9 161.079C335.9 161.319 335.98 162.359 335.98 162.599C335.98 164.079 334.42 164.519 333.7 164.519C332.9 164.519 332.66 164.079 332.66 163.319C332.66 163.279 332.66 162.719 332.74 161.719H317.94C317.98 162.879 318.02 164.639 315.74 164.639C314.9 164.639 314.66 164.159 314.66 163.559C314.66 163.279 314.78 161.239 314.86 160.079C315.02 156.999 315.14 145.759 315.14 142.959C315.14 134.439 314.94 133.479 314.5 131.719L318.54 133.799H332.18L333.42 132.599C333.74 132.279 333.94 132.119 334.22 132.119C334.46 132.119 334.7 132.319 334.98 132.559L336.7 134.119C336.98 134.399 337.18 134.639 337.18 134.879ZM332.78 146.879V134.759H317.9V146.879H332.78ZM332.78 160.759V147.839H317.9V160.759H332.78ZM383.82 141.559C383.82 141.919 383.46 141.999 383.22 141.999H376.58C376.58 146.919 376.66 154.759 376.66 159.639C376.66 161.919 376.66 163.319 374.7 164.879C373.18 166.039 371.94 166.119 371.14 166.159C370.78 164.159 368.74 162.719 367.66 162.199V161.999C368.42 162.039 369.78 162.079 371.3 162.079C373.26 162.079 373.46 162.079 373.7 161.559C373.94 161.119 373.94 157.839 373.94 157.119C373.94 154.719 373.86 144.159 373.9 141.999H370.14C369.34 141.999 367.26 141.999 365.42 142.359L364.62 140.759C367.3 140.999 370.02 141.039 370.78 141.039H373.86C373.86 139.759 373.86 134.079 373.78 132.919C373.66 131.199 373.42 130.519 373.1 129.759L377.3 131.079C377.58 131.159 378.02 131.399 378.02 131.679C378.02 131.999 377.58 132.359 376.66 132.959C376.58 134.199 376.62 139.879 376.58 141.039H378.14L379.7 139.199C379.9 138.959 380.06 138.719 380.3 138.719C380.54 138.719 380.82 138.919 381.06 139.119L383.42 140.959C383.58 141.079 383.82 141.279 383.82 141.559ZM370.3 152.359C370.3 153.599 369.38 154.639 368.38 154.639C366.94 154.639 366.78 153.079 366.58 151.439C366.3 148.799 365.62 147.399 364.9 145.919L365.06 145.719C366.66 146.599 370.3 149.799 370.3 152.359ZM365.74 139.759C365.74 140.159 365.34 140.159 365.1 140.159H359.26L362.3 142.119C362.54 142.279 362.74 142.439 362.74 142.719C362.74 143.239 362.18 143.319 361.14 143.519C360.74 144.879 360.02 147.399 358.42 151.399C361.38 154.719 362.86 157.519 362.86 159.239C362.86 160.559 361.94 161.159 361.3 161.159C360.18 161.159 359.74 160.359 359.02 157.999C358.62 156.679 357.5 154.599 357.18 154.079C353.9 160.879 349.86 163.679 346.74 165.319L346.58 165.079C347.98 163.799 352.26 159.839 355.62 151.639C353.74 149.119 351.54 146.839 348.98 144.999L349.14 144.759C352.46 145.759 354.86 147.879 356.5 149.399C356.9 148.239 358.3 144.159 358.5 140.159H352.82C351.38 140.159 349.54 140.239 348.14 140.519L347.34 138.959C350.1 139.159 353.1 139.199 353.5 139.199H354.9C354.78 132.919 354.78 132.199 354.06 130.239L358.5 131.519C358.78 131.599 359.06 131.879 359.06 132.159C359.06 132.479 358.62 132.839 357.62 133.439C357.62 133.919 357.58 136.119 357.58 136.559C357.58 136.879 357.58 137.079 357.62 139.199H360.54L362.02 137.399C362.18 137.199 362.46 136.919 362.66 136.919C362.9 136.919 363.18 137.159 363.38 137.319L365.34 139.119C365.58 139.359 365.74 139.559 365.74 139.759ZM422.5 156.519C422.5 157.359 422.1 158.839 420.54 158.839C419.38 158.839 419.3 158.439 418.46 155.279C417.74 152.479 416.78 149.759 415.06 147.439L415.26 147.199C420.38 150.519 422.5 154.639 422.5 156.519ZM412.3 146.479C412.3 147.519 411.5 148.199 410.54 148.199C409.5 148.199 409.18 147.519 408.42 145.839C407.5 143.799 406.5 141.959 404.7 139.959L404.78 139.679C407.98 141.199 408.9 141.799 409.82 142.559C411.78 144.239 412.3 145.799 412.3 146.479ZM421.22 136.439C421.22 136.759 420.9 136.839 420.66 136.839H393.3C393.3 141.479 393.3 150.719 392.54 154.359C391.18 161.119 388.14 163.919 387.1 164.879L386.74 164.799C390.3 159.679 390.54 149.439 390.54 145.079C390.54 142.879 390.38 136.399 389.78 134.279L393.58 135.879H403.74C403.7 132.399 403.66 131.319 402.98 129.599L407.06 130.679C407.34 130.759 407.74 130.919 407.74 131.319C407.74 131.799 407.18 132.079 406.62 132.399V135.879H415.78L417.3 133.639C417.54 133.279 417.7 133.119 417.94 133.119C418.18 133.119 418.38 133.279 418.7 133.599L420.86 135.799C421.1 136.079 421.22 136.279 421.22 136.439ZM416.34 161.759C416.34 162.239 416.06 163.519 414.22 164.319C413.38 164.679 412.38 164.759 408.62 164.759C401.7 164.759 401.38 164.759 401.38 159.759C401.38 158.159 401.46 151.039 401.46 149.599C401.46 146.479 401.34 145.719 400.98 144.079L405.34 145.559C405.5 145.599 405.78 145.759 405.78 146.039C405.78 146.599 404.94 147.079 404.34 147.359C404.22 150.239 404.14 153.159 404.14 156.039C404.14 156.999 404.14 161.119 404.42 161.559C404.74 162.079 405.46 162.159 408.26 162.159C410.3 162.159 411.66 162.159 412.26 161.479C412.7 160.999 412.82 160.359 413.9 156.199H414.18C414.66 159.719 414.74 160.559 415.62 160.999C416.14 161.279 416.34 161.439 416.34 161.759ZM398.18 155.279C398.18 159.519 396.82 161.919 395.06 161.919C394.34 161.919 393.34 161.399 393.34 160.359C393.34 159.679 393.38 159.599 394.94 157.239C396.3 155.199 396.7 152.279 396.98 149.719L397.26 149.599C397.58 150.479 398.18 152.239 398.18 155.279Z" fill="white"/>
</svg>
