<svg width="172" height="21" fill="none" xmlns="http://www.w3.org/2000/svg"><path d="M13.93 15.712H9.7L2.868 3.826H2.77c.136 2.1.204 3.597.204 4.492v7.394H0V0h4.2l6.82 11.768h.075c-.107-2.042-.161-3.486-.161-4.331V0h2.997v15.712zm8.679-9.909c-.695 0-1.239.223-1.633.667-.393.437-.619 1.06-.676 1.87h4.597c-.015-.81-.226-1.433-.634-1.87-.408-.444-.96-.667-1.654-.667zm.462 10.124c-1.934 0-3.444-.533-4.533-1.601-1.088-1.068-1.632-2.58-1.632-4.535 0-2.014.5-3.568 1.503-4.665 1.01-1.103 2.403-1.655 4.178-1.655 1.698 0 3.019.484 3.964 1.451.945.967 1.418 2.304 1.418 4.009v1.59h-7.744c.035.932.311 1.66.827 2.182.515.523 1.238.785 2.17.785.722 0 1.406-.075 2.05-.226a10.26 10.26 0 002.02-.72v2.536a7.524 7.524 0 01-1.837.634c-.651.144-1.446.215-2.384.215zm12.437 0c-3.737 0-5.606-2.052-5.606-6.158 0-2.042.508-3.6 1.525-4.675 1.017-1.082 2.474-1.623 4.371-1.623 1.39 0 2.636.273 3.738.817l-.967 2.536a15.287 15.287 0 00-1.439-.505 4.522 4.522 0 00-1.332-.204c-1.704 0-2.556 1.211-2.556 3.633 0 2.35.852 3.525 2.556 3.525.63 0 1.214-.083 1.751-.247a6.467 6.467 0 001.611-.796v2.805c-.53.337-1.067.57-1.61.699-.538.129-1.218.193-2.042.193zm9.055-6.244c0 1.19.193 2.089.58 2.698.394.609 1.03.913 1.912.913.873 0 1.5-.3 1.88-.902.386-.61.58-1.512.58-2.709 0-1.19-.194-2.081-.58-2.676-.388-.595-1.021-.892-1.902-.892-.873 0-1.504.297-1.89.892-.387.588-.58 1.48-.58 2.676zm8.302 0c0 1.956-.515 3.486-1.546 4.59-1.032 1.103-2.467 1.654-4.307 1.654-1.153 0-2.17-.25-3.05-.752-.881-.509-1.558-1.236-2.03-2.182-.473-.945-.71-2.049-.71-3.31 0-1.963.512-3.489 1.536-4.578 1.024-1.09 2.463-1.634 4.318-1.634 1.153 0 2.17.251 3.05.753.881.501 1.558 1.221 2.03 2.16.473.938.71 2.038.71 3.3zm9.302 6.244c-1.411 0-2.517-.512-3.32-1.537h-.171c.114 1.004.172 1.584.172 1.741V21h-3.276V3.697h2.663l.462 1.558h.15c.767-1.189 1.902-1.784 3.405-1.784 1.418 0 2.528.548 3.33 1.645.802 1.096 1.203 2.618 1.203 4.567 0 1.283-.19 2.397-.57 3.343-.371.945-.905 1.665-1.6 2.16-.694.494-1.51.741-2.448.741zM61.2 6.094c-.81 0-1.4.25-1.772.752-.373.494-.566 1.315-.58 2.461v.355c0 1.29.19 2.214.569 2.772.387.56.995.839 1.826.839 1.468 0 2.202-1.211 2.202-3.633 0-1.182-.183-2.067-.548-2.654-.358-.595-.924-.892-1.697-.892zm10.902 3.589c0 1.19.193 2.089.58 2.698.394.609 1.03.913 1.912.913.873 0 1.5-.3 1.88-.902.386-.61.58-1.512.58-2.709 0-1.19-.194-2.081-.58-2.676-.388-.595-1.021-.892-1.902-.892-.874 0-1.504.297-1.89.892-.387.588-.58 1.48-.58 2.676zm8.302 0c0 1.956-.515 3.486-1.546 4.59-1.032 1.103-2.467 1.654-4.308 1.654-1.152 0-2.17-.25-3.05-.752-.88-.509-1.557-1.236-2.03-2.182-.472-.945-.709-2.049-.709-3.31 0-1.963.512-3.489 1.536-4.578 1.024-1.09 2.463-1.634 4.318-1.634 1.153 0 2.17.251 3.05.753.881.501 1.558 1.221 2.03 2.16.473.938.71 2.038.71 3.3zm13.791 6.029H90.92V8.694c0-.866-.154-1.515-.462-1.945-.307-.437-.798-.655-1.471-.655-.917 0-1.579.308-1.987.924-.408.609-.612 1.623-.612 3.041v5.653H83.11V3.697h2.502l.44 1.537h.183a3.434 3.434 0 011.504-1.311c.644-.301 1.375-.452 2.191-.452 1.396 0 2.456.38 3.18 1.14.722.752 1.084 1.84 1.084 3.267v7.834zm19.537-12.015v1.666l-1.879.483a3.29 3.29 0 01.515 1.806c0 1.29-.451 2.296-1.353 3.02-.895.716-2.141 1.075-3.738 1.075l-.591-.033-.483-.053c-.336.258-.505.544-.505.86 0 .472.602.709 1.805.709h2.04c1.318 0 2.32.283 3.008.849.694.566 1.042 1.397 1.042 2.493 0 1.405-.588 2.494-1.762 3.267-1.167.774-2.846 1.161-5.037 1.161-1.676 0-2.957-.294-3.845-.881-.881-.58-1.321-1.397-1.321-2.45 0-.724.225-1.33.676-1.817.451-.487 1.114-.835 1.987-1.042a2.206 2.206 0 01-.88-.699c-.251-.33-.376-.677-.376-1.042 0-.459.132-.839.397-1.14.265-.308.648-.609 1.149-.902a3.25 3.25 0 01-1.503-1.312c-.366-.601-.548-1.31-.548-2.127 0-1.312.426-2.325 1.278-3.042.852-.716 2.069-1.075 3.652-1.075a8.8 8.8 0 011.192.097c.465.057.763.1.891.129h4.189zm-9.269 13.713c0 .452.215.806.645 1.064.436.258 1.045.387 1.825.387 1.175 0 2.095-.16 2.761-.483.666-.323.999-.763.999-1.322 0-.452-.197-.763-.591-.935-.394-.172-1.003-.258-1.826-.258h-1.697c-.601 0-1.106.14-1.514.419-.401.287-.602.663-.602 1.128zm1.192-9.78c0 .653.147 1.168.441 1.548.3.38.755.57 1.364.57.616 0 1.067-.19 1.353-.57.286-.38.43-.896.43-1.548 0-1.447-.595-2.17-1.783-2.17-1.203 0-1.805.723-1.805 2.17zm17.69 8.082l-.634-1.633h-.086c-.551.695-1.12 1.178-1.707 1.45-.58.266-1.339.398-2.277.398-1.153 0-2.063-.33-2.728-.988-.659-.66-.989-1.598-.989-2.816 0-1.275.444-2.214 1.332-2.816.895-.609 2.241-.946 4.039-1.01l2.083-.065v-.526c0-1.218-.623-1.827-1.868-1.827-.96 0-2.088.29-3.384.87l-1.085-2.214c1.382-.723 2.915-1.085 4.597-1.085 1.612 0 2.847.35 3.706 1.053.859.702 1.289 1.77 1.289 3.203v8.006h-2.288zm-.967-5.567l-1.267.043c-.952.029-1.661.2-2.127.516-.465.315-.698.795-.698 1.44 0 .925.53 1.387 1.59 1.387.759 0 1.364-.219 1.815-.656.458-.437.687-1.017.687-1.74v-.99zm17.389 5.567h-3.275V8.694c0-.866-.147-1.515-.441-1.945-.286-.437-.741-.655-1.364-.655-.838 0-1.446.308-1.826.924-.379.616-.569 1.63-.569 3.041v5.653h-3.276V3.697h2.503l.44 1.537h.183a3.291 3.291 0 011.396-1.29c.609-.315 1.307-.473 2.094-.473 1.798 0 3.015.588 3.652 1.763h.29c.322-.559.795-.992 1.418-1.3.63-.309 1.339-.463 2.127-.463 1.36 0 2.388.351 3.082 1.054.702.695 1.053 1.812 1.053 3.353v7.834h-3.287V8.694c0-.866-.147-1.515-.44-1.945-.287-.437-.741-.655-1.364-.655-.802 0-1.404.286-1.805.86-.394.573-.591 1.483-.591 2.73v6.028zm15.832-9.909c-.694 0-1.239.223-1.632.667-.394.437-.62 1.06-.677 1.87h4.597c-.014-.81-.226-1.433-.634-1.87-.408-.444-.959-.667-1.654-.667zm.462 10.124c-1.933 0-3.444-.533-4.533-1.601-1.088-1.068-1.632-2.58-1.632-4.535 0-2.014.501-3.568 1.504-4.665 1.009-1.103 2.402-1.655 4.178-1.655 1.697 0 3.018.484 3.963 1.451.945.967 1.418 2.304 1.418 4.009v1.59h-7.744c.035.932.311 1.66.827 2.182.515.523 1.238.785 2.169.785.724 0 1.407-.075 2.052-.226.644-.15 1.317-.39 2.019-.72v2.536a7.522 7.522 0 01-1.837.634c-.651.144-1.446.215-2.384.215zM172 12.144c0 1.233-.43 2.171-1.289 2.816-.852.645-2.13.967-3.834.967-.874 0-1.619-.06-2.234-.182a8.227 8.227 0 01-1.73-.516V12.52a11.56 11.56 0 002.052.72c.766.193 1.439.29 2.019.29 1.189 0 1.783-.344 1.783-1.032 0-.258-.079-.466-.236-.623-.158-.165-.43-.348-.816-.548a19.18 19.18 0 00-1.547-.72c-.924-.387-1.604-.746-2.041-1.075-.429-.33-.745-.706-.945-1.129-.193-.43-.29-.956-.29-1.58 0-1.067.412-1.891 1.235-2.471.831-.588 2.005-.882 3.523-.882a9.99 9.99 0 014.221.946l-.988 2.364a18.193 18.193 0 00-1.686-.634 5.294 5.294 0 00-1.601-.247c-.966 0-1.45.262-1.45.785 0 .294.154.548.462.763.315.215.999.534 2.052.956.938.38 1.625.735 2.062 1.064.437.33.759.71.967 1.14.207.43.311.942.311 1.536z" fill="#00FFF5"/></svg>