<svg width="161" height="18" fill="none" xmlns="http://www.w3.org/2000/svg"><path d="M7.272.598c1.488 0 2.78.248 3.876.744s1.94 1.2 2.532 2.112c.592.912.888 1.992.888 3.24 0 1.232-.296 2.308-.888 3.228-.592.92-1.436 1.624-2.532 2.112s-2.388.732-3.876.732H3.888v4.632H0V.598h7.272zm-.216 9c1.168 0 2.056-.252 2.664-.756.608-.504.912-1.22.912-2.148 0-.944-.304-1.668-.912-2.172-.608-.504-1.496-.756-2.664-.756H3.888v5.832h3.168zm19.08 8.088c-1.744 0-3.316-.376-4.716-1.128-1.4-.752-2.496-1.788-3.288-3.108-.792-1.32-1.188-2.804-1.188-4.452 0-1.648.396-3.132 1.188-4.452.792-1.32 1.888-2.356 3.288-3.108C22.82.686 24.392.31 26.136.31c1.744 0 3.312.376 4.704 1.128 1.392.752 2.488 1.788 3.288 3.108.8 1.32 1.2 2.804 1.2 4.452 0 1.648-.4 3.132-1.2 4.452-.8 1.32-1.896 2.356-3.288 3.108-1.392.752-2.96 1.128-4.704 1.128zm0-3.312c.992 0 1.888-.228 2.688-.684a4.908 4.908 0 001.884-1.908c.456-.816.684-1.744.684-2.784 0-1.04-.228-1.968-.684-2.784a4.908 4.908 0 00-1.884-1.908c-.8-.456-1.696-.684-2.688-.684-.992 0-1.888.228-2.688.684a4.908 4.908 0 00-1.884 1.908c-.456.816-.684 1.744-.684 2.784 0 1.04.228 1.968.684 2.784a4.908 4.908 0 001.884 1.908c.8.456 1.696.684 2.688.684zM54.096.598v16.8h-3.192l-8.376-10.2v10.2h-3.84V.598h3.216l8.352 10.2V.598h3.84zm11.64 0h7.632c1.824 0 3.436.348 4.836 1.044 1.4.696 2.488 1.676 3.264 2.94.776 1.264 1.164 2.736 1.164 4.416 0 1.68-.388 3.152-1.164 4.416-.776 1.264-1.864 2.244-3.264 2.94-1.4.696-3.012 1.044-4.836 1.044h-7.632V.598zm7.44 13.608c1.68 0 3.02-.468 4.02-1.404 1-.936 1.5-2.204 1.5-3.804 0-1.6-.5-2.868-1.5-3.804-1-.936-2.34-1.404-4.02-1.404h-3.552v10.416h3.552zM99 14.278v3.12H85.992V.598h12.696v3.12h-8.832v3.648h7.8v3.024h-7.8v3.888H99zm9.048 3.408c-1.328 0-2.612-.18-3.852-.54-1.24-.36-2.236-.828-2.988-1.404l1.32-2.928c.72.528 1.576.952 2.568 1.272.992.32 1.984.48 2.976.48 1.104 0 1.92-.164 2.448-.492.528-.328.792-.764.792-1.308 0-.4-.156-.732-.468-.996-.312-.264-.712-.476-1.2-.636a23.886 23.886 0 00-1.98-.528c-1.28-.304-2.328-.608-3.144-.912a5.108 5.108 0 01-2.1-1.464c-.584-.672-.876-1.568-.876-2.688 0-.976.264-1.86.792-2.652s1.324-1.42 2.388-1.884c1.064-.464 2.364-.696 3.9-.696 1.072 0 2.12.128 3.144.384s1.92.624 2.688 1.104l-1.2 2.952c-1.552-.88-3.104-1.32-4.656-1.32-1.088 0-1.892.176-2.412.528-.52.352-.78.816-.78 1.392s.3 1.004.9 1.284c.6.28 1.516.556 2.748.828 1.28.304 2.328.608 3.144.912a5.206 5.206 0 012.1 1.44c.584.656.876 1.544.876 2.664 0 .96-.268 1.836-.804 2.628s-1.34 1.42-2.412 1.884c-1.072.464-2.376.696-3.912.696zM118.272.598h3.888v16.8h-3.888V.598zm19.656 8.136h3.552v6.816c-.912.688-1.968 1.216-3.168 1.584a12.3 12.3 0 01-3.624.552c-1.744 0-3.312-.372-4.704-1.116-1.392-.744-2.484-1.776-3.276-3.096-.792-1.32-1.188-2.812-1.188-4.476 0-1.664.396-3.156 1.188-4.476.792-1.32 1.892-2.352 3.3-3.096C131.416.682 133 .31 134.76.31c1.472 0 2.808.248 4.008.744a7.942 7.942 0 013.024 2.16l-2.496 2.304c-1.2-1.264-2.648-1.896-4.344-1.896-1.072 0-2.024.224-2.856.672a4.82 4.82 0 00-1.944 1.896c-.464.816-.696 1.752-.696 2.808 0 1.04.232 1.968.696 2.784a4.923 4.923 0 001.932 1.908c.824.456 1.764.684 2.82.684 1.12 0 2.128-.24 3.024-.72v-4.92zM160.92.598v16.8h-3.192l-8.376-10.2v10.2h-3.84V.598h3.216l8.352 10.2V.598h3.84z" fill="#fff"/></svg>