<svg width="161" height="18" viewBox="0 0 161 18" fill="none" xmlns="http://www.w3.org/2000/svg">
<path d="M7.272 0.598061C8.76 0.598061 10.052 0.84606 11.148 1.34206C12.244 1.83806 13.088 2.54206 13.68 3.45406C14.272 4.36606 14.568 5.44606 14.568 6.69406C14.568 7.92606 14.272 9.00206 13.68 9.92206C13.088 10.8421 12.244 11.5461 11.148 12.0341C10.052 12.5221 8.76 12.7661 7.272 12.7661H3.888V17.3981H0V0.598061H7.272ZM7.05601 9.59806C8.22401 9.59806 9.11201 9.34606 9.72 8.84206C10.328 8.33806 10.632 7.62206 10.632 6.69406C10.632 5.75006 10.328 5.02606 9.72 4.52206C9.11201 4.01806 8.22401 3.76606 7.05601 3.76606H3.888V9.59806H7.05601ZM26.136 17.6861C24.392 17.6861 22.82 17.3101 21.42 16.5581C20.02 15.8061 18.924 14.7701 18.132 13.4501C17.34 12.1301 16.944 10.6461 16.944 8.99806C16.944 7.35006 17.34 5.86606 18.132 4.54606C18.924 3.22606 20.02 2.19006 21.42 1.43806C22.82 0.686058 24.392 0.310059 26.136 0.310059C27.88 0.310059 29.448 0.686058 30.84 1.43806C32.232 2.19006 33.328 3.22606 34.128 4.54606C34.928 5.86606 35.328 7.35006 35.328 8.99806C35.328 10.6461 34.928 12.1301 34.128 13.4501C33.328 14.7701 32.232 15.8061 30.84 16.5581C29.448 17.3101 27.88 17.6861 26.136 17.6861ZM26.136 14.3741C27.128 14.3741 28.024 14.1461 28.824 13.6901C29.624 13.2341 30.252 12.5981 30.708 11.7821C31.164 10.9661 31.392 10.0381 31.392 8.99806C31.392 7.95806 31.164 7.03006 30.708 6.21406C30.252 5.39806 29.624 4.76206 28.824 4.30606C28.024 3.85006 27.128 3.62206 26.136 3.62206C25.144 3.62206 24.248 3.85006 23.448 4.30606C22.648 4.76206 22.02 5.39806 21.564 6.21406C21.108 7.03006 20.88 7.95806 20.88 8.99806C20.88 10.0381 21.108 10.9661 21.564 11.7821C22.02 12.5981 22.648 13.2341 23.448 13.6901C24.248 14.1461 25.144 14.3741 26.136 14.3741ZM54.096 0.598061V17.3981H50.904L42.528 7.19806V17.3981H38.688V0.598061H41.904L50.256 10.7981V0.598061H54.096ZM65.736 0.598061H73.368C75.192 0.598061 76.804 0.94606 78.204 1.64206C79.604 2.33806 80.692 3.31806 81.468 4.58206C82.244 5.84606 82.632 7.31806 82.632 8.99806C82.632 10.6781 82.244 12.1501 81.468 13.4141C80.692 14.6781 79.604 15.6581 78.204 16.3541C76.804 17.0501 75.192 17.3981 73.368 17.3981H65.736V0.598061ZM73.176 14.2061C74.856 14.2061 76.196 13.7381 77.196 12.8021C78.196 11.8661 78.696 10.5981 78.696 8.99806C78.696 7.39806 78.196 6.13006 77.196 5.19406C76.196 4.25806 74.856 3.79006 73.176 3.79006H69.624V14.2061H73.176ZM99 14.2781V17.3981H85.992V0.598061H98.688V3.71806H89.856V7.36606H97.656V10.3901H89.856V14.2781H99ZM108.048 17.6861C106.72 17.6861 105.436 17.5061 104.196 17.1461C102.956 16.7861 101.96 16.3181 101.208 15.7421L102.528 12.8141C103.248 13.3421 104.104 13.7661 105.096 14.0861C106.088 14.4061 107.08 14.5661 108.072 14.5661C109.176 14.5661 109.992 14.4021 110.52 14.0741C111.048 13.7461 111.312 13.3101 111.312 12.7661C111.312 12.3661 111.156 12.0341 110.844 11.7701C110.532 11.5061 110.132 11.2941 109.644 11.1341C109.156 10.9741 108.496 10.7981 107.664 10.6061C106.384 10.3021 105.336 9.99806 104.52 9.69406C103.704 9.39006 103.004 8.90206 102.42 8.23006C101.836 7.55806 101.544 6.66206 101.544 5.54206C101.544 4.56606 101.808 3.68206 102.336 2.89006C102.864 2.09806 103.66 1.47006 104.724 1.00606C105.788 0.542059 107.088 0.310059 108.624 0.310059C109.696 0.310059 110.744 0.438059 111.768 0.694061C112.792 0.95006 113.688 1.31806 114.456 1.79806L113.256 4.75006C111.704 3.87006 110.152 3.43006 108.6 3.43006C107.512 3.43006 106.708 3.60606 106.188 3.95806C105.668 4.31006 105.408 4.77406 105.408 5.35006C105.408 5.92606 105.708 6.35406 106.308 6.63406C106.908 6.91406 107.824 7.19006 109.056 7.46206C110.336 7.76606 111.384 8.07006 112.2 8.37406C113.016 8.67806 113.716 9.15806 114.3 9.81406C114.884 10.4701 115.176 11.3581 115.176 12.4781C115.176 13.4381 114.908 14.3141 114.372 15.1061C113.836 15.8981 113.032 16.5261 111.96 16.9901C110.888 17.4541 109.584 17.6861 108.048 17.6861ZM118.272 0.598061H122.16V17.3981H118.272V0.598061ZM137.928 8.73406H141.48V15.5501C140.568 16.2381 139.512 16.7661 138.312 17.1341C137.112 17.5021 135.904 17.6861 134.688 17.6861C132.944 17.6861 131.376 17.3141 129.984 16.5701C128.592 15.8261 127.5 14.7941 126.708 13.4741C125.916 12.1541 125.52 10.6621 125.52 8.99806C125.52 7.33406 125.916 5.84206 126.708 4.52206C127.5 3.20206 128.6 2.17006 130.008 1.42606C131.416 0.682058 133 0.310059 134.76 0.310059C136.232 0.310059 137.568 0.55806 138.768 1.05406C139.968 1.55006 140.976 2.27006 141.792 3.21406L139.296 5.51806C138.096 4.25406 136.648 3.62206 134.952 3.62206C133.88 3.62206 132.928 3.84606 132.096 4.29406C131.264 4.74206 130.616 5.37406 130.152 6.19006C129.688 7.00606 129.456 7.94206 129.456 8.99806C129.456 10.0381 129.688 10.9661 130.152 11.7821C130.616 12.5981 131.26 13.2341 132.084 13.6901C132.908 14.1461 133.848 14.3741 134.904 14.3741C136.024 14.3741 137.032 14.1341 137.928 13.6541V8.73406ZM160.92 0.598061V17.3981H157.728L149.352 7.19806V17.3981H145.512V0.598061H148.728L157.08 10.7981V0.598061H160.92Z" fill="white"/>
</svg>
