<svg width="551" height="188" fill="none" xmlns="http://www.w3.org/2000/svg"><path d="M23.702 47.979v2.442h-2.59c-3.182 0-5.254 1.776-5.254 5.106v38.998c0 3.108 1.85 5.106 5.254 5.106h1.998c4.514 0 8.88-1.554 11.47-3.108 4.884-2.96 7.03-6.512 8.584-9.102l1.924.962-5.254 13.616H2.168v-2.368h2.516c3.034 0 5.328-1.628 5.328-5.106V55.527c0-3.33-2.072-5.106-5.328-5.106H2.168v-2.442h21.534zm48.461 0v2.442h-3.552c-3.034 0-5.254 1.628-5.254 5.106v38.998c0 3.33 2.072 5.106 5.254 5.106h3.552v2.368H48.705v-2.368h3.478c3.034 0 5.328-1.628 5.328-5.106V55.527c0-3.33-2.072-5.106-5.328-5.106h-3.478v-2.442h23.458zm47.813 54.02h-2.146L86.824 54.417v38.776c0 3.848 2.368 6.438 6.438 6.438h1.998v2.368H76.02v-2.368h2.368c3.626 0 6.068-2.146 6.068-6.438v-37c0-3.626-2.664-5.772-6.068-5.772H76.02v-2.442h13.69l27.824 43.142V56.267c0-3.552-2.516-5.846-5.772-5.846h-2.664v-2.442h19.314v2.442H125.6c-3.478 0-5.624 1.998-5.624 5.846v45.732zm35.134-26.788h-8.436v19.314c0 3.182 1.85 5.106 5.254 5.106h5.698c12.432 0 16.354-6.808 19.536-12.21l2.146.962-5.18 13.616h-41.366v-2.368h2.738c3.034 0 5.254-1.628 5.254-5.106V55.527c0-3.33-2.072-5.106-5.254-5.106h-2.738v-2.442h40.404l4.81 11.988-1.998 1.258c-4.07-6.512-8.806-10.804-15.836-10.804h-8.214c-3.108 0-5.254 1.702-5.254 5.106v17.316h8.436c5.624 0 8.362-2.368 8.362-7.326v-1.924h2.368v21.164h-2.368v-2.22c0-5.328-3.848-7.326-8.362-7.326zm40.372-30.71h11.84l1.48-1.702c.37-.444.74-.74 1.11-.74.296 0 .814.296 1.036.444l3.552 3.108c.222.222.518.592.518 1.036 0 .444-.222.74-.518.962-.222.222-1.11.962-1.628 1.332a191.18 191.18 0 00-.148 6.512c0 1.48.37 10.434.37 11.692 0 2.294-1.628 3.404-3.774 3.404-.962 0-1.628-.592-1.628-1.628 0-.444.074-1.406.074-1.702h-13.32c.074 4.07 0 22.126 0 25.826 0 1.776.222 9.694.222 11.248 0 2.59-2.22 3.404-3.848 3.404-1.406 0-1.998-.592-1.998-2.146 0-2.886.444-7.474.518-10.434.222-7.03.222-24.79.222-33.152 0-5.92-.074-14.578-.444-16.946-.222-1.406-.444-2.812-.666-3.7l7.03 3.182zm12.284 1.776H194.52l-.074 8.362h13.32v-8.362zm0 10.138h-13.32v9.028h13.32v-9.028zm20.35-11.914h12.432l1.85-1.85c.444-.444.74-.74 1.184-.74.37 0 .814.296 1.11.592l3.552 3.034c.222.222.518.592.518 1.036 0 .37-.222.666-.518.962-.296.296-1.258 1.11-1.924 1.628 0 2.146-.074 21.386-.074 28.86 0 2.96.222 15.91.222 18.5 0 6.808 0 9.176-8.288 11.248-.74-2.738-1.184-4.292-6.808-7.4l.074-.518a59.1 59.1 0 005.698.296c3.256 0 4.366 0 4.366-2.22 0-2.442-.074-30.044-.074-30.71H227.45c.222 2.368-2.072 3.034-3.552 3.034-1.406 0-1.702-.962-1.702-1.998 0-.888.222-4.81.222-5.624.074-2.886.148-6.586.148-10.878 0-3.182 0-7.4-.592-10.212l6.142 2.96zm13.32 1.776H227.45v8.362h13.986v-8.362zm0 10.138H227.45v9.028h13.986v-9.028zm-31.228 19.758h13.172l1.48-1.628c.666-.666.888-.962 1.258-.962.296 0 .666.296 1.11.592l3.108 2.22c.222.148.666.666.666.962 0 .518-.444.962-1.998 2.146a181.415 181.415 0 00-.148 6.882c0 1.184.222 6.586.222 7.622 0 1.85-1.554 3.33-3.33 3.33-1.258 0-1.924-.592-1.924-1.924 0-.518.074-1.702.148-2.294H209.32c0 .74.074 2.368 0 2.738-.148 1.48-1.702 2.59-3.404 2.59-1.11 0-1.702-.666-1.702-2.146 0-2.072.37-11.248.37-13.098 0-5.624-.148-7.474-.666-9.916l6.29 2.886zm13.764 1.776H209.32v13.394h14.652V77.949zm97.532 2.442c0 2.59-1.406 4.81-2.59 4.81-.888 0-1.184-.296-4.07-3.034-1.998-1.85-5.994-2.59-7.844-2.96v-.444c1.036-.148 6.068-.592 6.586-.74.962-.222 1.628-.814 1.628-1.924 0-2.294-3.848-13.172-13.024-17.76.518-.074.666-.148 1.258-.148 8.288 0 18.056 13.616 18.056 22.2zm-30.34-11.026c-1.036 2.22-8.732 19.61-8.88 20.424-.074.37-.148.592-.148.962 0 .592.592 3.404.592 3.996 0 1.924-1.184 2.516-2.294 2.516-2.59 0-13.098-3.7-14.356-24.79-.444-7.326-.74-11.988-1.184-13.616-.666-2.664-1.85-4.662-2.59-6.068 3.774.222 9.324 3.478 9.324 8.288 0 .518 0 .962-.296 2.442-.444 2.738-.962 6.364-.962 10.286 0 9.102 4.44 14.504 6.438 14.504.814 0 1.554-.962 1.776-1.332 3.33-4.958 8.806-12.802 11.988-17.834l.592.222zm95.534 12.95c0 .74-1.11 1.48-2.516 2.368-.148 3.034-.148 6.882-.074 10.064 0 1.332.37 7.326.37 8.584 0 1.998-2.812 2.886-4.07 2.886-.962 0-1.702-.37-1.702-1.48 0-.296.074-.888.148-1.85h-26.566c.074 1.332.222 3.996-4.292 3.996-.222 0-1.702 0-1.702-1.628 0-.666.37-3.774.37-4.366.37-6.734.296-13.616.296-14.874 0-4.366-.296-6.808-.444-8.362l6.586 3.478h25.234l1.924-2.368c.37-.518.814-.74 1.11-.74.37 0 .74.222 1.258.666l3.108 2.516c.296.222.962.74.962 1.11zm-7.844 18.796V82.907h-26.64v18.204h26.64zm22.126-33.892c-3.848 1.184-6.068 4.218-6.956 5.698-12.284-5.624-23.236-16.798-27.75-27.158-14.282 20.868-27.972 28.564-35.298 31.154l-.296-.444c8.436-5.624 18.426-15.91 24.938-24.864 2.294-3.108 5.624-7.696 6.216-11.766l6.364 2.812c.592.296 1.036.666 1.036 1.11 0 .592-.148 1.11-1.628 1.776 5.106 8.066 17.982 18.5 33.374 21.016v.666zm-18.87 3.404c0 .74-.666.814-1.184.814h-22.2c-1.332 0-5.106 0-8.658.666l-1.48-2.96c4.588.37 9.176.518 11.396.518h12.506l2.442-3.034c.37-.518.74-.888 1.184-.888.37 0 .814.37 1.332.74l3.922 3.034c.37.296.74.666.74 1.11zm87.69 5.402c0 16.132-18.574 22.348-30.562 22.052v-.518c8.214-1.554 25.012-8.214 25.012-22.052 0-8.584-7.844-11.396-11.618-11.396-6.216 0-14.726 3.774-23.162 11.248 0 4.366.222 7.4.444 9.768.222 3.034.666 8.066.666 9.176 0 2.59-.74 8.51-3.33 8.51-1.554 0-1.776-1.554-1.998-3.33-.148-1.406-.444-3.922-2.59-8.954l.296-.148c.444.37 2.886 1.998 3.256 1.998.592 0 .592-.74.592-1.11 0-.222-.222-3.626-.222-4.144 0-1.85-.074-3.7-.074-5.55v-3.256c-3.404 3.774-6.66 8.658-9.472 13.542-1.924 3.33-2.368 3.33-3.108 3.33-1.554 0-1.998-1.628-1.998-2.886 0-2.368.74-3.108 3.108-5.476 3.108-3.182 8.806-11.544 11.692-18.574.148-1.406.222-2.886.37-4.514-1.11-.074-5.106 2.368-6.068 3.034-2.59 1.85-2.886 2.072-3.848 2.072-2.96 0-5.106-4.144-5.106-7.252 0-.666.148-1.036.296-1.48 1.554 2.516 3.478 3.108 5.18 3.108 2.96 0 9.324-3.108 9.842-3.33.074-1.554.666-8.436.666-9.842 0-3.7-.814-4.218-4.514-6.438.666-.296 1.554-.74 3.182-.74 3.552 0 7.548 2.886 7.548 4.884 0 .37-.962 2.886-1.184 3.33-1.48 3.626-1.628 4.292-2.146 6.808.222-.148.444-.222.666-.222.814 0 5.18 1.036 5.18 2.516 0 1.11-1.924 3.256-2.886 4.292-1.332 1.554-2.812 3.552-4.292 6.512 0 .37-.074 1.406-.074 1.924 10.582-9.176 18.352-11.692 25.012-11.692s15.244 4.514 15.244 14.8zm77.552-12.506c0 2.22-2.072 2.22-3.848 2.22-.74 0-3.922-.148-4.588-.148-4.81 0-9.102.444-11.174.74-.592 9.99-1.48 21.312-7.104 21.312-1.11 0-1.11 0-2.96-2.368-1.184-1.48-2.442-2.886-7.548-5.994l.074-.37c6.808 1.702 7.548 1.85 8.954 1.85 1.406 0 2.442-.222 3.182-2.96.666-2.368.962-8.214 1.11-10.878-7.178 1.11-13.246 2.516-19.018 4.07-.074 3.182-.148 5.92-.148 7.104 0 15.54 1.924 18.648 14.208 18.648 4.958 0 7.622-.444 13.024-1.258.518-.074 1.11-.148 1.776-.148 3.256 0 4.366 2.22 4.366 3.404 0 .592-.148 1.258-1.036 1.702-1.11.518-1.924.962-10.804.962-24.346 0-25.9-6.216-25.9-29.082-3.552 1.258-7.844 2.664-10.508 4.366-.962.666-1.702 1.11-2.738 1.11-1.998 0-6.142-3.33-6.142-7.326 0-.37 0-.814.222-1.776 1.48 1.702 3.404 3.182 5.846 3.182 1.48 0 1.776-.074 13.32-3.034-.222-11.026-.222-11.618-5.106-13.838.74-.592 1.48-1.184 3.552-1.184 2.96 0 7.252 2.072 7.252 4.218 0 .592-.148 1.332-.296 1.924-.444 2.146-.592 3.7-.74 7.622 10.212-2.516 16.576-3.552 19.018-3.996.148-3.256.37-11.84-1.11-14.652-.814-1.48-3.552-2.664-5.624-3.182.666-.444 2.294-1.702 5.254-1.702 2.886 0 6.882 2.368 6.882 4.81 0 .222-.37 2.442-.444 2.886-.296 1.702-.518 9.546-.666 11.1 1.406-.222 8.806-1.554 9.324-1.702 1.776-.444 2.886-.814 4.366-.814.148 0 5.772 0 5.772 3.182zm-403.172 91.28l-1.92 8.2h-15.72v-1.08c.8-2.52 2.68-5.32 5.88-8.96 5.88-6.8 7.88-9.08 7.88-13.08 0-3-1.92-5.48-5.32-5.48-2.8 0-4.48 1.68-4.48 3.12 0 .12 0 .64.4 1.24.52.8.84 1.24.84 2 0 1.2-.96 2.24-2.16 2.24-1.4 0-2.28-1.32-2.28-2.8 0-2.92 2.84-7.16 8.6-7.16 4.96 0 8 3.12 8 7.44 0 4.04-2.32 6.24-5.92 9.32-1.36 1.12-6.64 5.64-8.64 10.04h5.52c5.6 0 6.92-2.16 8.12-5.48l1.2.44zm2.04-1.56l12.4-20.2h1.64v20.32h4.52v1.28h-4.52v4.64c0 1.76.88 2.44 2.8 2.44h.64v1.28h-10.16v-1.28h.64c1.88 0 2.8-.64 2.8-2.44v-4.64h-10.76v-1.4zm10.76.12v-15.04l-9.24 15.04h9.24zm23.68-18.8c0 .36-.8.88-1.36 1.28-.04 1.44-.08 2.36-.08 4.28 0 4.2.24 13.28.32 15 0 .52.12 1.44.12 1.96 0 1.52-1.72 1.6-1.92 1.6-1.08 0-1.08-.28-1-2.92h-5c0 .28.12 3.56.12 3.64 0 1.44-1.56 1.72-2 1.72-1 0-1-.76-1-1.24 0-.44.12-2.4.12-2.8.12-3.04.16-14.28.16-15.2 0-5.96-.12-7.08-.48-9.88l3.48 1.68h4.08l1.16-1.04c.44-.36.52-.52.72-.52.2 0 .4.12.64.36l1.6 1.44c.16.16.32.4.32.64zm-3.88 9.48v-9.4h-5.04v9.4h5.04zm0 10.76v-9.8h-5.04v9.8h5.04zm26.76-11c0 .4-.36.44-.6.44h-17.6c-.72 0-2.76 0-4.72.36l-.76-1.6c2.48.2 4.92.28 6.12.28h3.36v-6.12h-1.76c-.4 0-2.84 0-4.72.36l-.76-1.6c2.64.24 5.44.28 6.12.28h1.12c0-4.04-.12-4.8-.68-6.52l4.12 1.2c.44.12.72.32.72.64s-.12.4-1.28 1.2c-.04.96-.04 1.2-.08 3.48h3.92l1.48-1.72c.28-.36.44-.48.64-.48.24 0 .44.12.72.4l1.96 1.72c.2.16.4.32.4.6 0 .36-.36.44-.6.44h-8.56v6.12h6.08l1.52-1.84c.32-.4.44-.52.6-.52.24 0 .36.16.76.48l2.12 1.8c.32.28.36.48.36.6zm-.08 7.32c0 .36-.32.44-.6.44h-6.64c0 .8.12 8.32.12 9.6 0 1.52 0 4-5.16 4.96-.36-1.32-.8-2.44-3.68-4l.08-.28c.8.08 3.28.28 3.92.28 1.8 0 2.04-.36 2.08-1.16.04-.72.04-8.76 0-9.4h-7.76c-1 0-2.92.04-4.72.36l-.76-1.6c2.72.24 5.56.28 6.12.28h7.12c-.04-1.56-.12-4.36-.52-5.52l3.6.88c.52.12.76.2.76.52 0 .28-.12.36-1.16 1.16-.04.76-.04 1-.04 2.96h1.88l1.64-1.88c.32-.36.48-.48.68-.48.2 0 .36.08.68.4l1.96 1.88c.28.24.4.36.4.6zm-14.2 6.72c0 1.08-.84 1.76-1.68 1.76-1.2 0-1.44-1.12-1.64-2.2-.44-2.52-1.24-3.68-1.88-4.44l.16-.24c3.92 1.56 5.04 3.88 5.04 5.12zm52.64-24.6c0 .32-.32.6-1.6 1.4 0 3.88.08 21.04.08 24.52 0 3.6 0 4.56-1.6 5.68-.24.16-1.36.96-3.04 1.32-.32-1.4-.68-2.92-4.32-4.32l.08-.28c.68.04 4.32.24 4.72.24.36 0 1.12 0 1.36-.48.16-.36.16-3.64.16-4.36 0-2.16-.04-11.68-.04-13.6h-7.56c.04 1.12-.8 1.64-1.88 1.64-.56 0-.92-.32-.92-.96 0-1.76.12-9.36.12-10.88 0-.68-.08-1.4-.2-2.56l3.32 1.68h6.76l.96-1.08c.16-.16.48-.44.72-.44s.48.12.64.28l1.92 1.64c.2.2.32.36.32.56zm-4.2 4v-4h-7.6v4h7.6zm0 5.16v-4.2h-7.6v4.2h7.6zm-5 5.8c0 .28-.36.64-1.24 1.2 0 1.88 0 4.92.12 7.32 0 .36.16 2 .16 2.32 0 1.72-1.48 1.84-2 1.84s-1.04-.12-.84-2h-7.8c.08.96.24 2.6-1.88 2.6-.88 0-.92-.68-.92-1.12 0-.24.08-1.28.12-1.72.16-2.28.16-6.56.16-6.92 0-2.16 0-3.6-.28-5.64l2.92 1.44h7.6l.68-.88c.2-.28.44-.52.76-.52.2 0 .44.16.64.32l1.44 1.24c.2.16.36.32.36.52zm-3.8 4.48v-4.2h-7.8v4.2h7.8zm0 5.24v-4.28h-7.8v4.28h7.8zm-4.52-24.72c0 .28-.24.52-1.36 1.32v4.56c0 .64.16 3.72.16 4.16 0 .96-.96 1.56-1.96 1.56-1.08 0-.96-.96-.88-1.44h-6.84v10.04c0 1.44.16 8.4.16 9.96 0 1.04-.4 2.24-2.04 2.24-.88 0-1.16-.52-1.16-1.04 0-.24.12-1.28.12-1.52.32-4.52.32-7 .32-24.52 0-5.72 0-5.84-.44-8l3.72 1.76h5.76l1.04-.96c.24-.2.4-.4.56-.4.16 0 .36.16.48.24l2.08 1.52c.16.12.28.28.28.52zm-4 4.04v-4h-6.88v4h6.88zm0 5.16v-4.2h-6.88v4.2h6.88zm36.6 4.84c1.84.56 3.04.96 4.44 2.16 1.84 1.56 2.72 3.56 2.72 5.92 0 4.92-4.04 8.44-9.32 8.44-4.32 0-7.96-2.44-7.96-5.64 0-1.76 1.16-2.56 2.28-2.56 1.36 0 1.96 1.16 1.96 2 0 .6-.12.96-.24 1.28-.08.24-.12.52-.12.92 0 1.52 1.72 2.64 3.6 2.64 3.08 0 6.2-3.04 6.2-7.08 0-4.12-3.04-7.32-6.24-7.32-.24 0-1.36.16-1.6.16-.6 0-.88-.36-.88-.84 0-.52.4-.92.92-.92.24 0 1.44.24 1.72.24 3.36 0 5.48-3 5.48-6.24 0-3.12-1.88-6-5.04-6-2.12 0-3.24 1.52-3.24 2.68 0 .2.08.4.12.6.08.28.12.68.12.96 0 1.24-.92 2.2-2.04 2.2-1.32 0-2-1.16-2-2.2 0-2.2 2.56-5.6 7.68-5.6 4.92 0 8 3.2 8 6.72 0 1.4-.52 2.76-1.48 4.08-1.64 2.16-3.44 2.84-5.08 3.4zm13.24 2c.76-1.24 1.6-2.64 3.52-3.8.84-.52 2.08-1.04 3.48-1.04 3.96 0 7.16 4 7.16 8.84 0 5.56-3.96 10.52-8.56 10.52-4.56 0-9.2-5.16-9.2-13.8 0-9.24 5.2-16.92 11.32-16.92 2.68 0 4.56 1.6 4.56 3.52 0 1.44-1.12 2.08-2.04 2.08-.8 0-2.12-.52-2.2-2.8-.04-.88-.12-1.44-1.2-1.44s-2.16.6-2.92 1.44c-3.56 3.92-3.76 9.8-3.92 13.4zm.04 2.4c.16 2.2.48 6.04 2.16 8.6.68 1.08 1.72 2.16 3.24 2.16 2.12 0 5.12-2.2 5.12-8.8 0-1.8-.44-7.4-4.56-7.4-1.52 0-4.08 1.12-5.96 5.44zm31.56-14.68h-11.96l-.36 10.08c1.72-1.52 3.24-2.76 6.2-2.76 5.76 0 8.52 4.76 8.52 9.16 0 5.8-4.6 10.32-9.88 10.32-4.56 0-7.56-3.4-7.56-5.88 0-1.52.96-2.48 2.32-2.48 1.2 0 2.08.8 2.08 2.08 0 .4-.04.56-.2 1.2-.08.32-.12.88-.12 1.12 0 1.72 1.8 2.6 3.4 2.6 3.24 0 6.28-3.08 6.28-8.44 0-5.08-2.68-7.88-5.6-7.88-1.6 0-4.04.88-6.24 3.48l-.6-.32.6-15.44h13.92l-.8 3.16zm35.36-2.08c0 .48-.52.76-1.56 1.24-.08 2.24-.08 3.56-.08 5.84 0 7.04.2 16.72.36 19.12 0 .24.08 1.28.08 1.52 0 1.48-1.56 1.92-2.28 1.92-.8 0-1.04-.44-1.04-1.2 0-.04 0-.6.08-1.6h-14.8c.04 1.16.08 2.92-2.2 2.92-.84 0-1.08-.48-1.08-1.08 0-.28.12-2.32.2-3.48.16-3.08.28-14.32.28-17.12 0-8.52-.2-9.48-.64-11.24l4.04 2.08h13.64l1.24-1.2c.32-.32.52-.48.8-.48.24 0 .48.2.76.44l1.72 1.56c.28.28.48.52.48.76zm-4.4 12v-12.12H317.9v12.12h14.88zm0 13.88v-12.92H317.9v12.92h14.88zm51.04-19.2c0 .36-.36.44-.6.44h-6.64c0 4.92.08 12.76.08 17.64 0 2.28 0 3.68-1.96 5.24-1.52 1.16-2.76 1.24-3.56 1.28-.36-2-2.4-3.44-3.48-3.96v-.2c.76.04 2.12.08 3.64.08 1.96 0 2.16 0 2.4-.52.24-.44.24-3.72.24-4.44 0-2.4-.08-12.96-.04-15.12h-3.76c-.8 0-2.88 0-4.72.36l-.8-1.6c2.68.24 5.4.28 6.16.28h3.08c0-1.28 0-6.96-.08-8.12-.12-1.72-.36-2.4-.68-3.16l4.2 1.32c.28.08.72.32.72.6 0 .32-.44.68-1.36 1.28-.08 1.24-.04 6.92-.08 8.08h1.56l1.56-1.84c.2-.24.36-.48.6-.48s.52.2.76.4l2.36 1.84c.16.12.4.32.4.6zm-13.52 10.8c0 1.24-.92 2.28-1.92 2.28-1.44 0-1.6-1.56-1.8-3.2-.28-2.64-.96-4.04-1.68-5.52l.16-.2c1.6.88 5.24 4.08 5.24 6.64zm-4.56-12.6c0 .4-.4.4-.64.4h-5.84l3.04 1.96c.24.16.44.32.44.6 0 .52-.56.6-1.6.8-.4 1.36-1.12 3.88-2.72 7.88 2.96 3.32 4.44 6.12 4.44 7.84 0 1.32-.92 1.92-1.56 1.92-1.12 0-1.56-.8-2.28-3.16-.4-1.32-1.52-3.4-1.84-3.92-3.28 6.8-7.32 9.6-10.44 11.24l-.16-.24c1.4-1.28 5.68-5.24 9.04-13.44-1.88-2.52-4.08-4.8-6.64-6.64l.16-.24c3.32 1 5.72 3.12 7.36 4.64.4-1.16 1.8-5.24 2-9.24h-5.68c-1.44 0-3.28.08-4.68.36l-.8-1.56c2.76.2 5.76.24 6.16.24h1.4c-.12-6.28-.12-7-.84-8.96l4.44 1.28c.28.08.56.36.56.64 0 .32-.44.68-1.44 1.28 0 .48-.04 2.68-.04 3.12 0 .32 0 .52.04 2.64h2.92l1.48-1.8c.16-.2.44-.48.64-.48.24 0 .52.24.72.4l1.96 1.8c.24.24.4.44.4.64zm56.76 16.76c0 .84-.4 2.32-1.96 2.32-1.16 0-1.24-.4-2.08-3.56-.72-2.8-1.68-5.52-3.4-7.84l.2-.24c5.12 3.32 7.24 7.44 7.24 9.32zm-10.2-10.04c0 1.04-.8 1.72-1.76 1.72-1.04 0-1.36-.68-2.12-2.36-.92-2.04-1.92-3.88-3.72-5.88l.08-.28c3.2 1.52 4.12 2.12 5.04 2.88 1.96 1.68 2.48 3.24 2.48 3.92zm8.92-10.04c0 .32-.32.4-.56.4H393.3c0 4.64 0 13.88-.76 17.52-1.36 6.76-4.4 9.56-5.44 10.52l-.36-.08c3.56-5.12 3.8-15.36 3.8-19.72 0-2.2-.16-8.68-.76-10.8l3.8 1.6h10.16c-.04-3.48-.08-4.56-.76-6.28l4.08 1.08c.28.08.68.24.68.64 0 .48-.56.76-1.12 1.08v3.48h9.16l1.52-2.24c.24-.36.4-.52.64-.52s.44.16.76.48l2.16 2.2c.24.28.36.48.36.64zm-4.88 25.32c0 .48-.28 1.76-2.12 2.56-.84.36-1.84.44-5.6.44-6.92 0-7.24 0-7.24-5 0-1.6.08-8.72.08-10.16 0-3.12-.12-3.88-.48-5.52l4.36 1.48c.16.04.44.2.44.48 0 .56-.84 1.04-1.44 1.32-.12 2.88-.2 5.8-.2 8.68 0 .96 0 5.08.28 5.52.32.52 1.04.6 3.84.6 2.04 0 3.4 0 4-.68.44-.48.56-1.12 1.64-5.28h.28c.48 3.52.56 4.36 1.44 4.8.52.28.72.44.72.76zm-18.16-6.48c0 4.24-1.36 6.64-3.12 6.64-.72 0-1.72-.52-1.72-1.56 0-.68.04-.76 1.6-3.12 1.36-2.04 1.76-4.96 2.04-7.52l.28-.12c.32.88.92 2.64.92 5.68z" fill="#fff"/></svg>